<svg xmlns="http://www.w3.org/2000/svg" xmlns:xlink="http://www.w3.org/1999/xlink" viewBox="0 0 184.16 80"><defs><style>.cls-1{fill:url(#linear-gradient);}.cls-2{fill:url(#linear-gradient-2);}.cls-3{fill:url(#linear-gradient-3);}.cls-4{fill:url(#linear-gradient-4);}.cls-5{fill:url(#New_Gradient_Swatch);}.cls-6{fill:url(#linear-gradient-5);}.cls-7{fill:url(#linear-gradient-6);}.cls-8{fill:url(#linear-gradient-7);}.cls-9{fill:#f14b8b;}.cls-10{fill:#52c9dd;}</style><linearGradient id="linear-gradient" x1="1216.13" y1="-2296.04" x2="1240.94" y2="-2296.04" gradientTransform="translate(-1871.19 1777.51) rotate(19.49)" gradientUnits="userSpaceOnUse"><stop offset="0" stop-color="#7f6bb3"/><stop offset="1" stop-color="#52c9dd"/></linearGradient><linearGradient id="linear-gradient-2" x1="1216.12" y1="-2280" x2="1240.93" y2="-2280" xlink:href="#linear-gradient"/><linearGradient id="linear-gradient-3" x1="1216.12" y1="-2263.06" x2="1240.93" y2="-2263.06" xlink:href="#linear-gradient"/><linearGradient id="linear-gradient-4" x1="1209.44" y1="-2420.66" x2="1234.25" y2="-2420.66" gradientTransform="translate(-1925.05 1918.03) rotate(19.42)" gradientUnits="userSpaceOnUse"><stop offset="0" stop-color="#f14b8b"/><stop offset="1" stop-color="#fecb08"/></linearGradient><linearGradient id="New_Gradient_Swatch" x1="1234.68" y1="-2418.81" x2="1205.14" y2="-2390.33" xlink:href="#linear-gradient-4"/><linearGradient id="linear-gradient-5" x1="1239.98" y1="-2447.2" x2="1214.51" y2="-2430.53" xlink:href="#linear-gradient-4"/><linearGradient id="linear-gradient-6" x1="112.56" y1="47.4" x2="67.68" y2="73.05" gradientTransform="translate(-46.95 -27.07) rotate(-11.24)" xlink:href="#linear-gradient-4"/><linearGradient id="linear-gradient-7" x1="26.47" y1="107.11" x2="122.27" y2="107.11" gradientTransform="translate(-46.95 -27.07) rotate(-11.24)" xlink:href="#linear-gradient"/></defs><title>logo</title><g id="Layer_2" data-name="Layer 2"><g id="Layer_1-2" data-name="Layer 1"><path class="cls-1" d="M37.07,30.47l2-5.62a7.84,7.84,0,0,1,6-5.11l23.74-4.47-1.71,4.85c-1.86,5.24-5,5.41-10.48,6.49Z"/><path class="cls-2" d="M31.7,45.59l2-5.62a7.88,7.88,0,0,1,6-5.12L63.4,30.39l-1.72,4.85c-1.86,5.24-5,5.41-10.48,6.49Z"/><path class="cls-3" d="M26.05,61.55l2-5.62a7.89,7.89,0,0,1,6-5.11l23.74-4.47L56,51.21c-1.86,5.24-5,5.4-10.48,6.48Z"/><path class="cls-4" d="M53.49,18.13h0L28.87,22.79a6.32,6.32,0,0,0-4.78,4.1l-2.38,6.77a6.3,6.3,0,0,0,1.15,6.19l7.26,8.48-.69.13A24.91,24.91,0,0,0,10.79,64.63h0l24.78-4.94a6.3,6.3,0,0,0,4.71-4.08l2.42-6.87a6.31,6.31,0,0,0-1.18-6.22l-7.1-8.21.53-.1A24.8,24.8,0,0,0,53.49,18.13Z"/><path class="cls-5" d="M30.09,48.33l-.66.13A24.94,24.94,0,0,0,10.79,64.63l13.56-2.71a7.35,7.35,0,0,0,1-.2,8.59,8.59,0,0,0,4.72-13.39Z"/><path class="cls-6" d="M39.7,20.74c-.33.05-.66.11-1,.19A8.28,8.28,0,0,0,34.47,34.3l.48-.09A24.84,24.84,0,0,0,53.49,18.13Z"/><path class="cls-7" d="M25.77,20.2C49,7.06,71.67,3.34,76.51,11.89a7.36,7.36,0,0,1,.91,3.75C80.3,11.07,81.2,7,79.56,4.1,75.24-3.53,54.94-.21,34.23,11.53,23.61,17.55,15,24.61,9.61,31.09A122.21,122.21,0,0,1,25.77,20.2Z"/><path class="cls-8" d="M54.71,60.92C32,73.78,9.77,77.42,5,69.06c-1.13-2-1.16-4.5-.24-7.33C.5,67.36-1.14,72.45.82,75.9c4.32,7.63,24.62,4.31,45.32-7.43A98.69,98.69,0,0,0,67.22,52.81,122.13,122.13,0,0,1,54.71,60.92Z"/><path class="cls-9" d="M83.61,36.21a11.91,11.91,0,0,0-2.23-1.27c-.81-.34-1.55-.68-2.24-1a8.53,8.53,0,0,1-1.71-1.07,1.84,1.84,0,0,1-.68-1.45,1.76,1.76,0,0,1,.74-1.48,3.53,3.53,0,0,1,2.13-.55,11,11,0,0,1,2.76.33,7.29,7.29,0,0,1,1.91.74l1.25-3.33A8.37,8.37,0,0,0,83,26.24a17,17,0,0,0-3.34-.31,10.42,10.42,0,0,0-2.78.35,6.08,6.08,0,0,0-2.16,1.07,4.71,4.71,0,0,0-1.4,1.81,6.17,6.17,0,0,0-.5,2.57,5.31,5.31,0,0,0,.68,2.81,6.54,6.54,0,0,0,1.71,1.84,11.61,11.61,0,0,0,2.24,1.25c.8.33,1.54.66,2.23,1a7.7,7.7,0,0,1,1.71,1.06A1.91,1.91,0,0,1,82,41.18,2,2,0,0,1,81.09,43a5.19,5.19,0,0,1-2.71.59,10.07,10.07,0,0,1-1.47-.11c-.47-.08-.92-.18-1.34-.29s-.81-.25-1.15-.38a8.67,8.67,0,0,1-.83-.38l-1.27,3.39a11.65,11.65,0,0,0,2.43.81,15.72,15.72,0,0,0,3.83.41,11.53,11.53,0,0,0,3-.38A6.24,6.24,0,0,0,84,45.49a5.27,5.27,0,0,0,1.5-2,6.66,6.66,0,0,0,.54-2.8A5.07,5.07,0,0,0,85.32,38,6.6,6.6,0,0,0,83.61,36.21Z"/><path class="cls-9" d="M94.68,43.58a3.65,3.65,0,0,1-1,.12,1.16,1.16,0,0,1-1.15-.65,5.63,5.63,0,0,1-.3-2.16V35.32h3.54V32.13H92.23V28.34l-3.77,1.07v2.72h-2v3.19h2v7.31A5,5,0,0,0,89.4,46a3.8,3.8,0,0,0,2.95,1,8.83,8.83,0,0,0,2.11-.26,9.28,9.28,0,0,0,1.83-.64l-.67-2.9A6.61,6.61,0,0,1,94.68,43.58Z"/><path class="cls-9" d="M102.32,32.39A4,4,0,0,0,101,34.05h-.11l-.44-1.92H97.51V46.62h3.76V37.26a2.55,2.55,0,0,1,.92-1.37,2.61,2.61,0,0,1,1.69-.54,4.93,4.93,0,0,1,1.62.32l.5-3.54a5.59,5.59,0,0,0-1.71-.32A3.41,3.41,0,0,0,102.32,32.39Z"/><rect class="cls-9" x="107.45" y="32.13" width="3.77" height="14.49"/><path class="cls-9" d="M111,26.61a2.66,2.66,0,0,0-1.79-.59,2.41,2.41,0,0,0-1.72.59,1.91,1.91,0,0,0-.62,1.44,1.78,1.78,0,0,0,.62,1.4,2.45,2.45,0,0,0,1.72.57,2.71,2.71,0,0,0,1.79-.57,1.75,1.75,0,0,0,.68-1.4A1.87,1.87,0,0,0,111,26.61Z"/><polygon class="cls-9" points="122.84 32.13 120.37 39.67 119.97 41.96 119.82 41.96 119.33 39.73 116.63 32.13 112.26 32.13 118.55 46.77 120.84 46.77 126.89 32.13 122.84 32.13"/><polygon class="cls-10" points="131.62 38.13 138.95 38.13 138.95 34.6 131.62 34.6 131.62 29.87 139.68 29.87 139.68 26.34 127.65 26.34 127.65 46.63 139.82 46.63 139.82 43.09 131.62 43.09 131.62 38.13"/><path class="cls-10" d="M154.43,41.52V26.34h-3.77v5.88a6.31,6.31,0,0,0-1.16-.33,8.65,8.65,0,0,0-1.48-.1,6,6,0,0,0-4.93,2.05,8.91,8.91,0,0,0-1.68,5.77c0,2.55.51,4.43,1.51,5.62a5.21,5.21,0,0,0,4.23,1.8,5.15,5.15,0,0,0,2.57-.62,4.36,4.36,0,0,0,1.66-1.64h.12l.52,1.88h2.7a18.29,18.29,0,0,1-.26-2.69C154.44,43.15,154.43,42.34,154.43,41.52Zm-3.77.24a3,3,0,0,1-.9,1.55,2.64,2.64,0,0,1-1.74.53A2.19,2.19,0,0,1,146,42.71a5.88,5.88,0,0,1-.65-3,6.37,6.37,0,0,1,.79-3.68A2.79,2.79,0,0,1,148.48,35a4.44,4.44,0,0,1,1.28.16,3,3,0,0,1,.9.48Z"/><path class="cls-10" d="M163.7,31.79a7,7,0,0,0-5.39,2q-1.86,2-1.86,5.88,0,3.7,1.38,5.45A5,5,0,0,0,162,46.86c1.72,0,2.92-.46,3.59-1.37h.12v.93a3.64,3.64,0,0,1-.71,2.39,3.37,3.37,0,0,1-2.68.86,8,8,0,0,1-2.19-.26c-.59-.18-1.11-.35-1.55-.52l-.78,3a8.14,8.14,0,0,0,1.81.61,14.88,14.88,0,0,0,3.29.29,7.05,7.05,0,0,0,4.78-1.49,5.88,5.88,0,0,0,1.71-4.66v-14a13,13,0,0,0-2.39-.61A18.49,18.49,0,0,0,163.7,31.79Zm1.94,10.08a3.13,3.13,0,0,1-.91,1.48,2.59,2.59,0,0,1-1.7.49,2.22,2.22,0,0,1-2-1.1,6.12,6.12,0,0,1-.69-3.22,5.86,5.86,0,0,1,.81-3.46A2.67,2.67,0,0,1,163.41,35a5.8,5.8,0,0,1,2.23.38Z"/><path class="cls-10" d="M183.67,34.77a4.81,4.81,0,0,0-1.3-1.8,5.05,5.05,0,0,0-1.86-.95,7.73,7.73,0,0,0-2.14-.29,6.75,6.75,0,0,0-5.13,1.91q-1.83,1.92-1.83,5.74A8.81,8.81,0,0,0,173,45q1.62,2,5.13,2a10.37,10.37,0,0,0,3.18-.48,7.52,7.52,0,0,0,2.36-1.17l-1.25-2.47a5.67,5.67,0,0,1-1.43.74,5.73,5.73,0,0,1-2.13.37,3.6,3.6,0,0,1-2.77-.93,4.27,4.27,0,0,1-.94-2.75h8.69c.1-.51.17-1,.22-1.45a12.27,12.27,0,0,0,.07-1.31A7,7,0,0,0,183.67,34.77Zm-3,3.22h-5.4a4.41,4.41,0,0,1,.86-2.36,2.63,2.63,0,0,1,2.19-.89,2.14,2.14,0,0,1,1.87.84A3.73,3.73,0,0,1,180.66,38Z"/></g></g></svg>